<?xml version="1.0" encoding="UTF-8"?>
<svg width="1024px" height="1024px" viewBox="0 0 1024 1024" version="1.1" xmlns="http://www.w3.org/2000/svg" xmlns:xlink="http://www.w3.org/1999/xlink">
    <!-- Generator: Sketch 51.1 (57501) - http://www.bohemiancoding.com/sketch -->
    <title>Logo Roundel</title>
    <desc>Created with Sketch.</desc>
    <defs></defs>
    <g id="Logo-Roundel" stroke="none" stroke-width="1" fill="none" fill-rule="evenodd">
        <g id="Site-Logo-Roundel" fill="#0D7B76" fill-rule="nonzero">
            <path d="M512,1024 C229.230208,1024 0,794.769792 0,512 C0,229.230208 229.230208,0 512,0 C794.769792,0 1024,229.230208 1024,512 C1024,794.769792 794.769792,1024 512,1024 Z M193.544828,504.951161 L337.296552,361.601064 C346.324788,352.069751 346.324788,337.007596 337.296552,327.43472 C327.726482,318.427486 312.649576,318.427486 303.034483,327.43472 L134.703448,496.038201 C125.675212,505.218922 125.675212,520.281078 134.703448,529.461799 L303.034483,698.06528 C312.649576,707.072514 327.726482,707.072514 337.296552,698.06528 C346.324788,688.492404 346.324788,673.430249 337.296552,663.898936 L193.544828,520.548839 C189.426409,516.131805 189.426409,509.368195 193.544828,504.951161 Z M830.455172,504.201161 C834.573591,508.618195 834.573591,515.381805 830.455172,519.798839 L686.703448,663.148936 C677.675212,672.680249 677.675212,687.742404 686.703448,697.31528 C696.273518,706.322514 711.350424,706.322514 720.965517,697.31528 L889.296552,528.711799 C898.324788,519.531078 898.324788,504.468922 889.296552,495.288201 L720.965517,326.68472 C711.350424,317.677486 696.273518,317.677486 686.703448,326.68472 C677.675212,336.257596 677.675212,351.319751 686.703448,360.851064 L830.455172,504.201161 Z M557.190511,525.711632 C552.772379,521.643064 550.25,516.939909 550.25,511.929245 C550.25,507.091508 552.60128,502.54042 556.739879,498.570352 C607.62149,466.91281 644,382.794426 644,284 L644,272 C644,265.372583 649.372583,260 656,260 L674,260 C677.313708,260 680,257.313708 680,254 L680,230 C680,226.686292 677.313708,224 674,224 L350,224 C346.686292,224 344,226.686292 344,230 L344,254 C344,257.313708 346.686292,260 350,260 L368,260 C374.627417,260 380,265.372583 380,272 L380,284 C380,382.794426 416.37851,466.91281 467.260121,498.570352 C471.39872,502.54042 473.75,507.091508 473.75,511.929245 C473.75,516.939909 471.227621,521.643064 466.809489,525.711632 C416.163856,557.5844 380,641.497477 380,740 L380,752 C380,758.627417 374.627417,764 368,764 L350,764 C346.686292,764 344,766.686292 344,770 L344,794 C344,797.313708 346.686292,800 350,800 L674,800 C677.313708,800 680,797.313708 680,794 L680,770 C680,766.686292 677.313708,764 674,764 L656,764 C649.372583,764 644,758.627417 644,752 L644,740 C644,641.497477 607.836144,557.5844 557.190511,525.711632 Z" id="Combined-Shape"></path>
        </g>
    </g>
</svg>