<?xml version="1.0" standalone="no"?>
<!DOCTYPE svg PUBLIC "-//W3C//DTD SVG 20010904//EN"
 "http://www.w3.org/TR/2001/REC-SVG-20010904/DTD/svg10.dtd">
<svg version="1.0" xmlns="http://www.w3.org/2000/svg"
 width="700.000000pt" height="700.000000pt" viewBox="0 0 700.000000 700.000000"
 preserveAspectRatio="xMidYMid meet">
<metadata>
Created by potrace 1.11, written by Peter Selinger 2001-2013
</metadata>
<g transform="translate(0.000000,700.000000) scale(0.100000,-0.100000)"
fill="#000000" stroke="none">
<path d="M1984 6109 c-17 -18 -19 -37 -19 -151 0 -168 0 -168 155 -168 106 0
109 -1 138 -29 l29 -29 7 -199 c7 -228 19 -359 47 -528 100 -599 349 -1088
684 -1340 41 -30 83 -68 94 -83 56 -79 28 -155 -92 -246 -375 -284 -637 -848
-712 -1531 -8 -71 -17 -221 -21 -333 l-7 -204 -29 -29 c-29 -28 -31 -29 -138
-29 -155 0 -155 0 -155 -168 0 -114 2 -133 19 -151 l19 -21 1497 0 1497 0 19
21 c17 18 19 37 19 151 0 168 0 168 -155 168 -107 0 -109 1 -138 29 l-29 29
-7 204 c-4 112 -13 262 -21 333 -75 683 -337 1247 -712 1531 -120 91 -148 167
-92 246 11 15 53 53 94 83 335 252 584 741 684 1340 28 169 40 300 47 528 l7
199 29 29 c29 28 32 29 138 29 155 0 155 0 155 168 0 114 -2 133 -19 151 l-19
21 -1497 0 -1497 0 -19 -21z"/>
<path d="M1675 5234 c-47 -14 -103 -68 -843 -809 -591 -592 -797 -804 -812
-837 -24 -52 -26 -135 -5 -186 11 -26 252 -274 803 -826 630 -631 797 -793
837 -812 151 -72 314 29 315 194 0 29 -7 69 -15 90 -11 26 -219 241 -690 712
-371 371 -678 686 -684 701 -23 62 -31 52 679 759 753 750 718 708 707 831
-13 143 -148 227 -292 183z"/>
<path d="M5139 5222 c-91 -47 -129 -152 -98 -267 9 -34 107 -136 689 -720 374
-374 684 -692 689 -707 7 -19 7 -37 0 -55 -5 -16 -315 -334 -689 -708 -734
-736 -700 -697 -700 -806 0 -32 9 -64 28 -100 22 -43 38 -59 81 -81 65 -34
145 -38 206 -9 57 27 1618 1592 1640 1643 8 21 15 60 15 88 0 28 -7 67 -15 88
-22 51 -1583 1616 -1640 1643 -61 29 -141 25 -206 -9z"/>
</g>
</svg>
